<svg xmlns="http://www.w3.org/2000/svg" viewBox="0 0 100 100" fill="none">
  <defs>
    <linearGradient id="mistralGradient" x1="0%" y1="0%" x2="100%" y2="100%">
      <stop offset="0%" style="stop-color:#E10500;stop-opacity:1" />
      <stop offset="20%" style="stop-color:#FA500F;stop-opacity:1" />
      <stop offset="40%" style="stop-color:#FF8205;stop-opacity:1" />
      <stop offset="60%" style="stop-color:#FFAF00;stop-opacity:1" />
      <stop offset="100%" style="stop-color:#FFD800;stop-opacity:1" />
    </linearGradient>
  </defs>
  <circle cx="50" cy="50" r="45" fill="url(#mistralGradient)" />
  <rect x="38" y="32" width="6" height="6" fill="white" />
  <rect x="46" y="32" width="6" height="6" fill="white" />
  <rect x="54" y="32" width="6" height="6" fill="white" />
  <rect x="32" y="40" width="6" height="6" fill="white" />
  <rect x="38" y="40" width="6" height="6" fill="white" />
  <rect x="46" y="40" width="6" height="6" fill="white" />
  <rect x="54" y="40" width="6" height="6" fill="white" />
  <rect x="32" y="48" width="6" height="6" fill="white" />
  <rect x="38" y="48" width="6" height="6" fill="white" />
  <rect x="46" y="48" width="6" height="6" fill="white" />
  <rect x="54" y="48" width="6" height="6" fill="white" />
  <rect x="60" y="48" width="6" height="6" fill="white" />
  <rect x="32" y="56" width="6" height="6" fill="white" />
  <rect x="38" y="56" width="6" height="6" fill="white" />
  <rect x="46" y="56" width="6" height="6" fill="white" />
  <rect x="54" y="56" width="6" height="6" fill="white" />
  <rect x="60" y="56" width="6" height="6" fill="white" />
  <rect x="40" y="64" width="6" height="6" fill="white" />
  <rect x="48" y="64" width="6" height="6" fill="white" />
  <rect x="56" y="64" width="6" height="6" fill="white" />
</svg>
